/* XPM */
static char *ae91759297b84e98df0ac0bb7a17ec694XBjw1VVHoEq9zLX[] = {
/* columns rows colors chars-per-pixel */
"64 64 165 2 ",
"   c #5B4E55",
".  c #5A535F",
"X  c #5C5462",
"o  c #5F5965",
"O  c #605A66",
"+  c #645D6A",
"@  c #69636F",
"#  c #676470",
"$  c #6A6470",
"%  c #796477",
"&  c #947576",
"*  c #9F827F",
"=  c #847687",
"-  c #847688",
";  c #857B8A",
":  c #8A7E8D",
">  c #937E85",
",  c #8B7F90",
"<  c #85818D",
"1  c #8A818E",
"2  c #90848D",
"3  c #9B848D",
"4  c #9E8889",
"5  c #8C8192",
"6  c #918593",
"7  c #988595",
"8  c #908A97",
"9  c #908798",
"0  c #928B9B",
"q  c #95919F",
"w  c #98959E",
"e  c #A58A8B",
"r  c #AD8C89",
"t  c #A6918F",
"y  c #A9908D",
"u  c #A48E90",
"i  c #A49295",
"p  c #A99494",
"a  c #A39499",
"s  c #A6989E",
"d  c #AE9B9D",
"f  c #B49E9D",
"g  c #B99C9B",
"h  c #988FA0",
"j  c #9692A1",
"k  c #9C94A4",
"l  c #9C99A5",
"z  c #9A97A8",
"x  c #9C9BAA",
"c  c #A194A3",
"v  c #A598A6",
"b  c #A89BA1",
"n  c #A59BAA",
"m  c #AA9EAC",
"M  c #B09EA1",
"N  c #9FA0AF",
"B  c #94A0B3",
"V  c #99A8B9",
"C  c #ADA2A6",
"Z  c #A3A1AB",
"A  c #ADA3AA",
"S  c #ABA8AE",
"D  c #B4A2A4",
"F  c #BBA5A5",
"G  c #B6A6AA",
"H  c #B9AAAE",
"J  c #A1A3B2",
"K  c #A9A4B1",
"L  c #A5A8B7",
"P  c #AEABB7",
"I  c #A7ADBB",
"U  c #ACAEBC",
"Y  c #B3A4B3",
"T  c #B3AAB4",
"R  c #BAABB2",
"E  c #B0AFBD",
"W  c #B9ADBA",
"Q  c #A7B0BD",
"!  c #A9B0BD",
"~  c #BBB2B6",
"^  c #B1B1BE",
"/  c #BDB1BB",
"(  c #C6A9A4",
")  c #C6ACAC",
"_  c #CBB1AF",
"`  c #C4B4B6",
"'  c #C7B5B9",
"]  c #C6B8BC",
"[  c #CCBABB",
"{  c #D4BFBF",
"}  c #D6C1BF",
"|  c #ADB4C1",
" . c #B2B5C2",
".. c #B9B7C4",
"X. c #B6BAC6",
"o. c #BCB9C6",
"O. c #B7BAC8",
"+. c #BDBDCA",
"@. c #C6B6C3",
"#. c #C3BCC4",
"$. c #CCBAC6",
"%. c #C4BFC8",
"&. c #D3BFC1",
"*. c #BDC1CD",
"=. c #BCC5D4",
"-. c #BFD0E1",
";. c #BAD3EA",
":. c #B2D6F2",
">. c #BCDEF6",
",. c #BCDFF8",
"<. c #BCE1F7",
"1. c #C2C2CE",
"2. c #C9C3CD",
"3. c #D5C0C2",
"4. c #D8C6C6",
"5. c #D5C8CF",
"6. c #DDCCCE",
"7. c #C6C6D1",
"8. c #CBC6D1",
"9. c #C4C8D1",
"0. c #CCCAD5",
"q. c #D2CCD5",
"w. c #D2CFD8",
"e. c #CDD1DB",
"r. c #D5D2DB",
"t. c #DAD3DD",
"y. c #CAD9EC",
"u. c #D4D5E1",
"i. c #DCD6E0",
"p. c #D7DAE1",
"a. c #DDDAE3",
"s. c #C2DFF6",
"d. c #E1DBE3",
"f. c #C4E1F6",
"g. c #CDE4F6",
"h. c #C0E0F9",
"j. c #CCE4F9",
"k. c #D2E6F6",
"l. c #D7EAF7",
"z. c #D8E8F6",
"x. c #D1E5FA",
"c. c #D7EBFB",
"v. c #DCECFA",
"b. c #DFECFC",
"n. c #E2E1E4",
"m. c #E4E6EE",
"M. c #EBE6EC",
"N. c #EAEAED",
"B. c #ECEDF2",
"V. c #E1EFFC",
"C. c #E7F5FC",
"Z. c #EBF3FF",
"A. c #ECF2FE",
"S. c #ECF3FF",
"D. c #EFF4FC",
"F. c gray94",
"G. c #F2F6FD",
"H. c #F7F8FB",
"J. c #F6F9FE",
"K. c #FAFBFD",
"L. c #FAFBFF",
"P. c #FBFCFE",
"I. c #FDFCFD",
"U. c #FDFFFD",
"Y. c #FEFEFE",
/* pixels */
"n.@ $ $ $ $ $ < Y.Y.Y.Y.@ $ $ $ $ n.Y.$ $ $ $ @ Y.Y.Y.Y.Y.Y.Y.Y.Y.Y.Y.$ $ N.Y.Y.Y.Y.Y.; $ $ w $ $ $ $ $ $ $ $ $ $ $ $ $ l Y.Y.Y.",
"Z.S.S.Z.,.p p >.j.g.Z.0.*.*.F g g F [ 5.W $ $ Y.t R R H 0.p j.R T R R p v.y R R i D :.s.Y.Y.j.:.Z.j.>.x.Y.$ $ 2.e i i d t  .g.g.",
"1.1.1.1.1.1.1.1.1.1.1.1.1.1.1.1.1.0.0.0.Y $ Y.f.t.i.i.0.8.1.1.1.1.1.1.1.1.1.1.1.1.1.1.1.A A 1.1.0.0.0.r.j.$ $ 2.t.r.1.1.1.1.1.1.",
"1.1.1.1.1.1.1.1.1.1.P.1.1.1.1.1.1.1.1.0.m $ $ ..o.o.1.1.1.1.1.1.1.1.1.1.1.1.1.1.1.1.1.1.1.1.H.1.1.1.0.W 3 $ $ ..r.o.1.1.1.1.1.1.",
"1.1.1.1.1.1.1.1.1.1.1.1.1.1.1.1.1.1.1.X.m $ $ E E o.1.1.1.1.1.1.1.1.1.1.1.1.1.1.1.1.1.1.P.1.1.1.1.1.1.Y m $ $ E 0.o.1.1.1.1.1.1.",
"1.1.1.1.1.1.1.1.1.1.1.1.1.1.1.1.1.1.X.X.m $ $ J E E X.1.1.1.1.P.1.1.1.1.1.1.1.1.1.1.1.1.1.1.1.1.1.1.X.K m $ $ J L.E X.1.1.1.1.1.",
"1.1.1.1.1.1.1.1.1.1.1.1.1.1.1.1.O.X.X.X.0 $ $ J J E X.X.X.1.1.1.1.1.1.1.1.1.1.1.1.1.1.1.1.1.1.1.+.X.X.U k $ $ J J E ^ X.X.1.1.1.",
"X.1.1.1.1.1.1.1.1.1.1.1.1.1.X.X.X.X.X.J 0 $ $ J J J E X.X.X.X.X.1.1.1.1.1.1.1.1.1.1.1.1.1.1.X.X.X.X.X.J h $ $ J J J J X.X.X.X.X.",
"X.X.X.X.X.X.L.X.X.X.X.X.X.X.X.X.X.X.J J 0 $ $ J J J J J X.X.X.X.X.X.X.X.X.X.X.X.X.X.X.9.X.X.X.X.X. .J J 0 $ $ J J J J J ! X.X.X.",
"X.X.X.X.X.X.X.X.X.X.X.X.X.X.X.! ! J J J 0 $ $ 0 J J J J J I ! X.X.X.X.X.X.X.X.X.X.X.X.X.X.X.X.! U J J J 5 $ $ 0 J J J J J J ! ! ",
"J J J J J ! X.X.X.X.! ! ! ! J J J J J z = $ $ 0 J J J J J J J J J J J I X.X.X.X.X.X.X.! ! I J J J J J z = $ $ : J J J J J J J J ",
"5 5 5 0 0 0 0 0 0 : - ; : : 5 5 5 5 5 = - $ $ 1 : 0 0 0 5 5 5 5 5 9 0 j z x N J J J j 0 0 0 0 0 j 0 0 : = $ $ a : 0 0 0 5 5 5 5 ",
"C C a a a a a S.Y.Y.Y.~ a a a a a a a s Y.Y.Y.Y.Y.Y.Y.Y.~ Y.Y.Y.C C C a a a a a a a L.a a a a a a a a a O $ $ O a a a a s C C C ",
"Y.Y.Y.1 $ D.Y.j.L.Y.Y.Y.j.g.l.Z.S.S.>.,.x.f.>.d f g.P.Y.Y.>.j.j.Y.Y.Y.L.+ + Y.j.j.j.S.Y.Y.Y.Y.P.S.Y.G./ j.v.Y.j.Y.Y.Y.Y.Y.Y.Y.Y.",
"y.R j.j.$ Y.f.) j.k.u 0.0.0.0.0.0.0.0.0.0.0.0.d.d.d.r D ] r.r.t.f r r & $ Y.L.2.0.0.0.0.0.0.r.0.0.0.0.0.0.0.0.0.w.0.0.0.0.0.H j.",
"7.0.$.c $ j.d.+.0.q.i.i.i.i.i.t.i.i.i.i.Y.r.0.1.1.1.1.1.1.1.1.1.0.0.$.m $ j.t.o.1.1.1.1.1.1.1.1.1.1.1.1.1.1.1.1.1.1.1.1.1.1.1.1.",
"1.1.@.m $   q.o.o.1.1.1.1.1.1.1.1.1.1.1.1.1.1.1.1.1.1.1.1.1.1.1.1.8.$.m $ P U o.o.1.1.1.1.1.1.1.1.1.1.1.u.1.1.1.1.1.1.1.1.1.1.1.",
"1.X.@.m $ # ^ E +.1.1.1.1.1.1.1.1.1.1.1.1.1.1.1.1.1.1.1.1.1.1.1.1.+.@.m $ x E E  .1.1.1.1.1.1.1.1.1.1.1.1.1.1.1.1.1.1.1.1.1.1.1.",
"X.L.k k $ $ J E E X.1.1.1.1.1.1.1.1.1.1.1.1.1.1.1.1.1.1.1.1.1.1.X.X.n k $ q J E E X.+.1.1.1.1.1.1.1.1.1.1.1.1.1.1.1.1.1.1.1.1.1.",
"X.X.0 k $ $ J J E X.X.X.X.1.1.1.1.1.1.1.1.1.1.1.1.1.1.1.1.1.X.X.X.X.0 k $ 0 J J U X.X.X.X.1.1.1.1.1.1.1.1.1.1.r.1.1.1.1.1.1.X.X.",
"X.J 0 k $ $ J 2.J J L.X.X.X.X.X.X.1.1.1.1.1.1.1.1.1.1.X.X.X.X.X.X.J 0 k $ 8 J J J J X.X.X.X.X.X.X.O.1.1.1.1.1.1.1.1.X.X.X.X.X.X.",
"J J 0 5 $ @ J 2.J J J ! X.X.X.X.X.X.X.X.X.X.X.X.X.p.X.X.X.X.X.! J J J.5 $ 8 J J J J J !  .X.X.X.X.X.X.X.X.X.X.X.X.X.X.X.X.X.X.! ",
"J J 0 = $ @ J J J J J J J J ! X.X.X.X.X.X.X.X.X.X.X.X.X.X.! J J J J 0 = $ 0 J J J J J J J L.I L.X.X.X.X.X.X.X.X.X.X.X.e.! ! J J ",
"z 0 = - $ # , J L.J J J J J J J J J J J J J J J J  .J 5 5 5 Z J J z = = $ 2 0 J J J J J J J J J J J J J J J J J J J J z z z z z ",
"a a a X $ # a : 5 5 5 5 5 5 5 5 5 5 5 5 5 ; = % % % % % % % % % = = = 9.$ + a a a C C C C C C C C C C C a a a a a a a a a a a a ",
"Z Y.Y.Y.Y.P.P.Y.P.Y.Y.Y.Y.Y.Y.Y.F.+ X X X X X X X X X X X Y.Y.Y.Y.X X $ $ Y.X X X o.X X X X X X X X X X X X X Z.Y.J.Y.Y.Y.Y.Y.B.",
"8.0.0.2.H H L.0.0.* j.v.r [ [ T h.Y.P.0.0.$ $ @ 0.S R G R p =.g.S.S.S.S.Z.>.>.k.Z.Y.Y.P.S.b.Z.S.J.x.0.0.$ $ @ Y.>.j.G.Y.* i R #.",
"i.1.1.1.1.1.1.1.1.1.1.1.1.1.1.7.0.0.B.0.Y $ $ 2.2.0.d.d.d.d.d.M.d.d.d.d.d.d.d.d.a.a.a.d.a.a.d.d.d.0.0.d.Y $ P.j.2.0.4 1.1.1.i.i.",
"1.Y.1.1.1.1.1.1.1.1.1.1.1.1.P.L.1.1.0.0.Y $ $ 2.o.o.1.L.1.1.1.1.1.1.1.1.1.1.1.1.1.1.1.1.1.1.1.1.1.1.0.W m $ B C r.o.1.1.1.1.1.1.",
"1.1.1.1.1.1.1.1.1.1.1.1.1.1.1.1.1.1.1.0.m $ $ E +.o.1.1.1.1.1.1.1.P.1.1.1.1.1.1.1.1.1.1.1.1.1.1.1.1.1.W m $ $ E q.o.1.1.1.1.1.1.",
"1.1.1.1.1.1.1.1.1.1.1.1.1.1.1.1.1.1.1.X.m $ $ E ^ E 1.1.1.1.1.1.1.1.1.1.1.1.1.1.1.1.1.1.1.1.1.1.1.1.1.n m $ $ L 8.E 1.1.1.1.Y.1.",
"1.1.1.1.1.1.1.1.1.1.1.1.1.1.1.1.1.X.X.X.7 $ $ J E E X.X.1.1.1.1.1.1.1.1.1.1.1.1.P.1.1.1.1.1.1.1.1.X.X. .L.$ $ J J E X.X.1.1.1.1.",
"1.1.1.Y.1.1.1.1.1.1.1.1.1.1.1.X.X.X.X.U = $ $ J J J ! X.X.X.X.1.1.1.1.1.1.1.1.1.1.1.1.1.1.1.1.X.X.X.X.J k $ $ J J J E X.X.X.X.1.",
"X.X.X.X.X.1.1.1.1.1.X.X.X.X.X.X.X.X.J J = $ $ J J J J ! X.X.X.X.X.X.X.*.1.1.1.1.1.1.1.X.X.X.X.X.X.X.J J 0 $ $ J J J L.! X.X.X.X.",
"X.X.X.X.X.X.X.X.X.X.X.X.X.X.X.X.Q J J J = $ $ x J J J J J ! X.X.X.X.X.X.X.X.X.X.X.X.X.X.X.X.X.X.Q J J J 0 $ $ 0 J J 7.J J B. .X.",
"J !  .X.X.X.X.X.X.X.X.X.X.! I J J J J 0 % $ $ 0 J J J J J J J J Q | X.X.L.J.X.X.X.X.X.X.X.! L.J J J J J = $ $ 0 J J J J J J J J ",
"J J J J J J L.0 0 0 0 0 5 5 5 5 5 z j = % $ $ : J J J J J J J J J J J J J J J J J J J J z z z z z z z 0 = $ $ : z J J J J J J J ",
"C C C C C > > > > > > > > > > > > > > > > $ $ a a a C C C C C C C C C C C b a a a a a a a a a a a a a a a $ $ + a a a C C C C C ",
"Y.Y.$ $ $ $ $ $ $ $ $ $ $ $ $ $ $ $ # @ $ $ $ $ $ $ $ $ $ $ @ Y.Y.Y.Y.$ $ $ j.>.,.f.l.Y.Y.Y.Y.Y.Y.Y.Y.Y.L.Z.Y.Y.Y.Y.Y.Y.Y.Y.Y.Y.",
"[ t.d.Y $ Y.z.H R H H H H d i i G &.} 4.{ 6.{ } ( ( _ L.g R j.j.P.Y.Y.S.$ $ 2.0.0.t.t.t.t.t.t.t.$.` ] t.t.w.` [ 3.&.&.&.&.&.[ [ ",
"0.0.$.m $ S.t.t.i.2.1.1.1.1.1.1.1.1.1.1.1.1.1.1.1.1.1.1.1.1.1.R H %.g j.$ T d.d.w.w.w.w.w.w.w.w.w.w.Y.w.w.w.w.w.w.w.w.Y.w.w.w.1.",
"1.0.$.m $ O o.o.+.1.1.1.1.1.1.1.1.1.1.1.1.1.1.1.1.1.1.1.1.1.1.1.1.0.$.m $ P ..o.1.1.1.1.0.w.w.w.w.w.w.w.w.w.w.w.w.w.w.w.w.0.1.1.",
"1.1.@.m $ $ E E o.1.1.1.1.1.1.1.1.1.P.Y.1.1.1.1.1.1.1.1.1.1.1.1.1.1.@.m $ Z E E o.1.1.1.1.P.1.1.w.w.w.w.w.w.w.7.1.1.1.1.1.1.1.1.",
"+.X.v k $ # E E E +.1.1.1.1.1.H.1.1.1.1.1.1.1.1.1.1.1.1.1.1.1.1.1.X.Y n $ l U E E X.1.1.1.1.1.1.1.1.w.1.1.1.1.1.1.1.1.1.1.1.1.1.",
"X.X.k k $ $ J J E X.X.X.P.1.1.1.1.1.1.1.1.1.1.1.1.1.1.1.1.1.1.X.X.X.c k $ 0 J J E X.X.X.1.1.1.1.1.1.1.1.1.1.1.1.1.1.1.1.1.1.1.X.",
"X.J 0 k $ $ J J J X.X.X.X.X.X.1.1.B.1.1.1.1.1.1.1.1.1.1.X.X.X.X.X.^ 0 k $ 5 J J J X.X.X.X.X.X.+.1.1.1.1.1.1.1.1.1.1.1.1.X.X.X.X.",
"J J 0 j $ @ J J *.J I X.X.X.X.X.X.X.X.X.X.X.X.X.X.u.X.X.X.X.X.P.I J 0 k $ 8 J J J J I | X.X.X.L.X.X.X.X.X.X.X.X.X.X.X.X.X.X.X.X.",
"J J 0 = $ @ J J p.J J J Q ! X.X.X.X.X.X.X.X.X.X.X.X.X.X.X.X.! J J J 0 = $ 8 J J J J J J J !  .X.X.X.X.X.X.X.X.O.X.X.X.X.X.! I J ",
"J J : = 0.$ z J J J L.J J J J J J J J  .X.X.X.X.X.! ! L.I J J J J J - - $ 1 J J J J J J J J J J J J J J J L | ! ! U ! I x x J J ",
"= = = a $ # : : 0 0 0 5 5 5 5 5 5 0 0 0 0 0 0 j 0 6 0 0 0 0 0 0 0 0 T a $ O : : 0 0 5 5 5 5 5 5 5 5 5 0 0 0 0 : = = = = = = = = ",
"X X k X $ $ G.a 2.a a C C C C C C a a a a a a a a a a a a a a a a a L.X J.$ Y.X X X X X X X X X X X X X X X X X . ^ 2.X X + X . ",
">.j.i Y.Y.P.K i j.Y.V.S.Y.Y.Y.L.Y.Y.Y.G.Y.X X X K H.Y.Y.Y.x.j.Y.Y.Y.j.-.A ,.j.j.>.Z.S.J.Y.c.j.Y.Y.Y.S.c.Y.X X Y.:.p C.D G >.Y.<.",
"0.0.0.0.0.0.0.0.0.d.d.' j.:.H / 8.0.2.[ j.# $ 0.2.#.2.0.0.0.0.0.0.0.0.0.0.0.0.0.L.d.d.d.Y.d.d.d.d.M L.d.x.Y.Y.x.2.0.0.0.0.0.d 0.",
"1.a.1.1.1.1.1.1.1.1.1.1.1.1.1.1.1.1.0.0.;.$ $ 2.r.o.1.1.1.1.1.1.1.1.1.1.1.1.1.1.1.1.1.1.1.1.1.1.1.0.0./ Y V =.2.r.o.1.1.1.1.1.G.",
"1.1.1.1.1.1.1.1.1.1.1.1.8.1.1.1.1.1.1.0.m $ $ E X.o.1.1.1.1.1.1.1.1.1.1.1.1.1.1.1.1.1.1.1.1.1.1.1.1.1.W m $ $ ^ r.o.1.1.0.1.1.1.",
"1.p.1.1.1.1.1.1.1.1.1.1.1.Y.1.1.1.1.1.X.m $ $ E E ^ 7.1.1.1.1.1.1.1.1.1.B.1.1.1.1.1.P.1.1.1.1.1.1.1.1.m m $ $ E 8.E 1.1.1.1.1.1.",
"1.1.1.1.1.1.1.1.1.1.1.1.1.1.1.1.1.1.X.X.m $ $ J E E X.1.1.1.1.1.1.1.1.1.1.1.1.1.1.1.1.1.1.1.1.1.1.B.X.U m $ $ L.E E X.X.1.1.1.1.",
"1.1.1.1.1.1.1.1.1.1.1.1.1.1.1.+.X.X.X.E 0 $ $ J J ^ X.X.X.X.1.1.1.1.1.1.1.1.1.1.1.1.1.1.1.1.1.*.X.X.X.E k $ $ J J L.^ X.X.X.1.1.",
"X.X.X.1.1.1.1.1.1.B.1.1.X.X.X.X.X.X.L.J 0 $ $ J J J J X.X.X.X.X.X.X.1.P.a.1.1.1.1.1.1.1.X.X.X.X.X.X.I J 0 $ $ J J J J | X.X.X.X.",
"X.X.X.X.X.X.X.X.X.X.X.X.X.X.X.X.X.I J J 0 $ $ J J J J m.! X.X.X.X.X.X.X.X.X.X.X.X.X.X.X.X.X.X.X.X.J J J 0 $ $ 0 J J J J I ! X.X.",
"! X.X.X.X.X.X.X.X.X.X.X.X.X.! ! J J J J - $ $ 0 J J J J J J J ! | X.X.X.X.X.X.X.X.X.X.X.X.X.! ! L.J J J = $ $ 0 J J J J J J J I ",
"J J J J J J J J J J J N.J z z z z J z 0 = $ $ : J J J J J J J J J J J J J J J J J I U I J z m.z J J x 0 = $ $ : J J J J J J J J ",
"0 0 0 0 0 0 6 : : : : : : : : : : : : 1 a $ $ a 1 1 5 5 5 5 5 5 5 5 5 5 5 5 5 = = = = = = = = = = = = = a $ $ a 6 6 J.0 0 0 0 0 ",
"O O O O O O O O O O O O O O O O O O O O O $ $ O O O O O O O O O O O O O O O O O O O O O O O O O O O O O o $ $ @ O O O O O O O O "
};
