/* XPM */
static char *e7f2c67c489745c6fdbb4ba075852d6eVdgKeFleGf656Y9K[] = {
/* columns rows colors chars-per-pixel */
"64 64 49 1 ",
"  c #131313",
". c #161616",
"X c gray10",
"o c gray12",
"O c #222222",
"+ c gray14",
"@ c gray17",
"# c #2D2D2D",
"$ c #323232",
"% c #353535",
"& c gray22",
"* c #3F3F3F",
"= c #434343",
"- c #464646",
"; c gray29",
": c gray30",
"> c #515151",
", c #555555",
"< c gray35",
"1 c #5F5F5F",
"2 c #606060",
"3 c #656565",
"4 c DimGray",
"5 c gray43",
"6 c gray45",
"7 c gray46",
"8 c gray48",
"9 c #7E7E7E",
"0 c #818181",
"q c #848484",
"w c #898989",
"e c #8E8E8E",
"r c #909090",
"t c #959595",
"y c #9B9B9B",
"u c gray61",
"i c #A0A0A0",
"p c #A4A4A4",
"a c gray67",
"s c #AFAFAF",
"d c #B2B2B2",
"f c #B6B6B6",
"g c #BBBBBB",
"h c gray74",
"j c gray76",
"k c gray77",
"l c #CACACA",
"z c #CDCDCD",
"x c LightGray",
/* pixels */
"99+:9xztyy0::yyyiyyyyyyy0X5;dsiut;,guwe8;:::8yyyteyq9o:;00777799",
"=:>::yueey0::ryreereert8#:;ulzffiusfddayi0,:-eyrrt0+::g,;..X.+$&",
">1:::1y0ee8::,reeerryr75=yazfdfddaiyyyyyyy9::*tr00X:5udt#:::::::",
"y0:::eyrwqo:p-;856887q #-yddfyyyyyyyayyyyee9::$7o-:hzdde1::><ydi",
"ye0::5ye8.:yyu6:-#oo%::::qdsyyyyyyuyeyyfyeeer1:X:;ydddy0=::pddfy",
"tey0:>uryO>tyy9:::::hyr1::iyyyyyyyiyyyyteqree0:::ydduyr7o:0zldyy",
"ret0O:yru7;9008:guyyy0dw;:9iyeuyyyyyyteeeewey0:,yddyyre7X:yzfdyy",
"ewe9o:yr97:;;%#:<jzdd7ye8::weeeeer9reertyyyt9o:ufftyyfe7X:yddyua",
"eeeq#:ye8X::;:;::ydyyyeew*::9eeq779009090880.:,ddyyyyfe7X:ydyyyy",
"eerq$:r6X>:ufdy0:,yrreeqt7-:X-03XX@::>*#:::::::yyyyyrpe7.:yyyyee",
"y990&:qo::>zzla0;:66769y97#::>:::::::::;>::::::02yeeeeey.:tutrer",
"3oXX>:::::ygddfuq:::::#XXX;:;1fyyyyyyy7diu4:::::.00979e7O:079877",
":::;;::::ufdddddp1urwrq::::gyxgzddfdddfdfye:::ytq;::#XoO-:>*OXXX",
":yfi0;:::tdsyyyyyyyyyeq::::yzfdfddaiyyyysye9:qfty8>::sru::::::::",
":zgfy0:::>uyiyyyyyyyree7:::idddywypyyyydayer0>gy72:::gzddtyauyq:",
":fdyyy0:::0yyrtyd8eeeet7:::yfyyyeyyydyydrree9:e68*;q:yddfdyuyyw$",
":tyyyre8:::reerreeeeeey7:::0yyyttrqreeeeeeet6:,6.ey8:udyyyyyrrw6",
">&9yee774::5877999777688+::>08778777777777777-;8:2y8;yyyyer9ery#",
":::078Oo::::&&*;::OXXO#::::::*-::::;;=-;;:&XO::@:>79%07wyyyq777X",
"::::@@;;::::>:;:>*;:::1:::hyyyw0,::puryut0->:::::::>::=32$.XoX-:",
"yr::::;ye4:0yipyyyyyy97::yzjdyyy9;:zxddddyytt5::gtye@:;:::1fyyy:",
"yr9:::kdt8::lzzgddayye0:gxzdyyyt8X:dddddyyyyt7:ixkde@:y9:dxfdfyt",
"rut9:jgyy7::kfdduyyyr7*:pddyyyyr7X;ddyyyyyyer7>:ldy6O:uy%0fddfyu",
"eee9:tfur7-:ifyyyuyyr7o:udyyyyte8X<uyyutyeeeq9#:fdy7X,dy0:dddyyu",
"r9r7:yyye8:>ttyyytetr7o:uyyyyyey9X:qreeeeeey662:yyt9Xzfy8:ydyyye",
"rry8:yw878;:89eyyyyeq0O:wyyytqy8.=:>877qyt87X&-uyy06>3ae7:0yytee",
"ei7@;9=o..>::-wiereery<:20rreru::iq:-..XoXX$;addrer3;:te7&:yeeee",
"7%@;:::3e6477:<wqqyyyt9::.67907ogfy2:::::>;:yireeey&::77>o:<779q",
"X:sizzddfddiu6:0*&4788X::::XXXX#4yy9-:thuy9::877et7X::::::;:::X2",
":dgzffyyyy6ye9:::::::::>lk9:::i::800@:fgdy7:::::$X+X:::::yyrq::;",
":tldaayyyyyte0::2tzprq>;9y0%yxf0::XX>:jfyy8=::>;::;2ay9:yzhfyy0*",
":wdfyyyryytei9:slzkddye:><7:zfdyyw;:::fayr7-ezzfdytyye7:tzdsry0#",
":wdfyyyfuyreu::pzddddyye>:X:zdyyyyr,::yype7:fgddduuyde8:sdpyuyw=",
":qytywyyterry8;pfddfy2yy7:::yyyyyyr5::yuqr7:yyyyyueree7>syyyyeq-",
"::;0teeereu78o>,ddayyyyt7:::yytytre7;;87776-0yeewettut7:yyytee7+",
"::;:>6977871X:::dfyyyyye7:::reeertu7&:@ooXX::,63%<761-X:77wru77&",
":py9:-;XX%;:;y2:styyyiye6;::777782=OX:::::::::::::::;:;::-+87X::",
":ldq::::::::yy9;suyyyyer7-g:>;::::;:>gw;:u9:5uiyuq;wq:::::::->::",
":zfyyew::;:;0u8:tyyyyier7&y:>:3dyw0;:00oadw$qzjyy8;8=yequstye7::",
":gdyyy9;;sy0:93:yyyyesee7#2=dzzdddyq::*-yy0#tldyw7;$adddddyyyye=",
":fuyy07 ;zku9;o:0r00yyyy7O::zzhdfuyyt1:>r90-dddyy8::fljddsyyyee7",
":iyeet6Ohzfyyt::%,=#+#&<6o::zddiatyuyy8::0=:sdyyt8:3fddduyyyyee3",
":8eeey6:uduyteeq>::::>::::9:ddyyyyyfyre,;*:8djyye7:gddyyyyyyre8-",
":@-7y6+;yyeyree79:::::::;y0:yyyyyyyatrw4::;pduyre7:ryyyyyyyyer7X",
"a:>;O6o:0875777oX::dfayyye7:ur9eeeeedre<>1:qy6wyy7:weereeeeery7+",
"yy0:::::::::::::,:ryyrrere7:0weerwryyyt2:0:;67;$=1;58666eeedt7oi",
"yq0;jdt0::<sgrr7::096089876:*;7787=X.2,o;%::O.;:::>::::,weey7X-y",
"ye.:edy0:ykzfdr7:::::::::::>::;;:;:::>:;:::a7jyrtiq941::@777$:aa",
"eu9:2yt0:ydffyw7:rr8::ltujarre5>;:::::::::jazzzdfdyry8:::;::>qay",
"ee0::q9@-addyye7:fy0:yfffggfdyy7:>fgdyyu6>wzzzayyyy6e7:ttr6:::pe",
"t94::-0O:dfywye7:te0:;08yyyywye7>:zfyyyy7:yfdysyyyyee7:ry00&::&w",
"04o0d>::1fyydee8#--X::O.5ttrrrr7&:ayyyyr8=iayyyyyyref7Ot90+:=;:.",
"*;:q099:,yyytew7%:::dp9:>177777;::901uye7owyyytweerqd7X;5o;9awq:",
"0>::+$X>>ytr9ee7::uzlday5;=::::::;:Oyrfe7O5<eeeeerrer7o:;:wzfyyy",
"e0;::;;::0werey7:kzdddyt8$:fpyytyt9:rery7%<85777777778o:>fffyyyy",
"e0::sy0>>;+77765:lddfyye7Xuxzjdddy8;8778X:::--;;*#oo.X%-ikdyyeye",
"t0:;fu0:u*:>.X&:2siuyyte7X:uddffau7:%oo.::>tr;::>:9uf=:>jfuyyytr",
"70;;dyrO::fy9;7:8tyyyyer7X:eduyurw7;::>::w:9#:difdfdyq;,yyyrurey",
"5o:tfyy5>ddq8;y:;0ereeet.>:;yyyyyt7#fy7:r9>O-yfdddayy9O-07777877",
":::yyuy9;fy0Xy00<:88q887&j0;<quyar6Xu7#3s9X:ydiyyeywy0$:;XoXXX#;",
":;;w9000:009%9&oO*:.XX.#::=*;77eer7ow6:dy9o69899qeeq90&::::>,:>;",
"yq:0%o:;;>@;::;2rpr::11:::::,:O5987=::yye8o>XXXXXXXXo&::,aisdyut",
"ew3;:::::::::tfgdfkfddyry0:uq:::X@o::e0887X:3juetyyy0:::ddyyyyrr",
"yy@:iykkgy0;:sdyyuyyyyiy9,-9O:9::::::%*+X%o:ddfdddiy9-:yyiyerety"
};
