/* XPM */
static char *c4feaeec9eb141add12456cd5aeec136UQVMBV2S410MqXie[] = {
/* columns rows colors chars-per-pixel */
"64 64 177 2 ",
"   c #5A3618",
".  c #613B1F",
"X  c #583622",
"o  c #633E21",
"O  c #744517",
"+  c #794A1E",
"@  c #5C4638",
"#  c #7B4E27",
"$  c #765026",
"%  c #7F522A",
"&  c #785A2F",
"*  c #714C30",
"=  c #775631",
"-  c #7B5330",
";  c #765834",
":  c #7F5A35",
">  c #76553A",
",  c #79543C",
"<  c #77593E",
"1  c #7C5B3D",
"2  c #795743",
"3  c #755C47",
"4  c #7D5C43",
"5  c #7E5E49",
"6  c #7D6046",
"7  c #7D604B",
"8  c #86572C",
"9  c #8C572F",
"0  c #8B5B2E",
"q  c #8E5E35",
"w  c #815E3F",
"e  c #89603D",
"r  c #916236",
"t  c #94643A",
"y  c #99633B",
"u  c #93693D",
"i  c #9A6B3E",
"p  c #825E45",
"a  c #815E4A",
"s  c #836144",
"d  c #8B6444",
"f  c #83614A",
"g  c #8C644A",
"h  c #85694B",
"j  c #8C6A49",
"k  c #9B6B42",
"l  c #936D4C",
"z  c #9C6D4B",
"x  c #9C7044",
"c  c #9D744E",
"v  c #8D6B51",
"b  c #946E52",
"n  c #8E7359",
"m  c #947254",
"M  c #997353",
"N  c #9E7F53",
"B  c #94755C",
"V  c #98765C",
"C  c #9A785B",
"Z  c #A16F45",
"A  c #A26F48",
"S  c #A47346",
"D  c #A87347",
"F  c #A77847",
"G  c #A5744A",
"H  c #A9744A",
"J  c #A77A4B",
"K  c #AC7C4E",
"L  c #B17E4D",
"P  c #AE7E51",
"I  c #A87F58",
"U  c #B17F54",
"Y  c #AD804E",
"T  c #B1804F",
"R  c #A68352",
"E  c #AE8153",
"W  c #A3825F",
"Q  c #AC835A",
"!  c #B28355",
"~  c #B88655",
"^  c #B68A56",
"/  c #B98A56",
"(  c #B58659",
")  c #B8875C",
"_  c #B68A5A",
"`  c #B8895B",
"'  c #9F8268",
"]  c #A78464",
"[  c #AD8366",
"{  c #A78468",
"}  c #B58B63",
"|  c #BA8D62",
" . c #B0896A",
".. c #B29065",
"X. c #BC9265",
"o. c #B1926C",
"O. c #BE956A",
"+. c #BE996C",
"@. c #A88C74",
"#. c #BF9774",
"$. c #BE9C71",
"%. c #B5967A",
"&. c #BD9B7B",
"*. c #C08B63",
"=. c #C59766",
"-. c #C1966C",
";. c #C39A6D",
":. c #C89A6C",
">. c #C39771",
",. c #C29B71",
"<. c #C99C73",
"1. c #C99B79",
"2. c #C7A16E",
"3. c #CAA16D",
"4. c #C3A276",
"5. c #CBA375",
"6. c #CEAB73",
"7. c #C6A47C",
"8. c #CAA47C",
"9. c #C6A97C",
"0. c #CBA97C",
"q. c #D0A476",
"w. c #D2AD74",
"e. c #D1A47B",
"r. c #D2AB7B",
"t. c #CEB074",
"y. c #D3B07C",
"u. c #DAB27E",
"i. c #C69E82",
"p. c #C6A684",
"a. c #C9A681",
"s. c #CCAB83",
"d. c #D0A781",
"f. c #D1A883",
"g. c #D0A688",
"h. c #CFB185",
"j. c #D2B186",
"k. c #DAB585",
"l. c #D3B886",
"z. c #DBBC84",
"x. c #D3B38C",
"c. c #DCBC8C",
"v. c #D5B690",
"b. c #DBB494",
"n. c #DDBC93",
"m. c #DCBD9E",
"M. c #E0BC83",
"N. c #E5BF8B",
"B. c #E0BE9D",
"V. c #DEC084",
"C. c #DFC28B",
"Z. c #DDC194",
"A. c #DFC399",
"S. c #E3C286",
"D. c #E5C287",
"F. c #E2C486",
"G. c #E2C18A",
"H. c #E4C389",
"J. c #E2C48A",
"K. c #E1C28C",
"L. c #E4C28D",
"P. c #E3C493",
"I. c #E7CA91",
"U. c #EDC891",
"Y. c #E4C59C",
"T. c #E3CA9E",
"R. c #EACD9C",
"E. c #EBD29D",
"W. c #E4C7A1",
"Q. c #E4C8A0",
"!. c #EBCDA2",
"~. c #ECD1A6",
"^. c #ECD1A8",
"/. c #F0D5A5",
"(. c #F0E5CF",
"). c #FCF8E7",
"_. c #FDF6EB",
/* pixels */
"G.I.z.J.y.w.t.w.w.6.w.w.S.V.6.6.w.U.W.W R.K.E.P.C.C.G.w.z.J.G.H.G.S.H.S.D.D.J.L.K.(.N R.F.F.J.J.J.S.G.G.G.F.J.M.w.w.J.P./.S.G.G.",
"` ` _ 8.-.n.c.R.7.` _ _ ,.O.| } ( X.x.8.f s.j.;.-.:.3.5.r.y.Y.Q.T.!.!.P.Z.L.L.L.P.^.^.4 s._ _ _ ` 5.0.n._ ` ( _ ` ( ;.0.> s.O._ ",
"( ( <.( ( ` ` 5.8.` ` ` ` ` ` ( ( ! ( ` s ( P P Y E P P K ` ` ` ` ` ` _ ` ` ^ _ ` X.8.f ( ( ( ( ( ( ` ` ` ` ` ` ` ` ` _ 4 ( ` ( ",
"` r ` ( ( ( _ _ ` ` ` ( ` ` _ ` ` ` ` ` p ( ` ` _ ` E ( P ( ` ` ` ` ` ` ` ` ` ` ` ` ` a ` ` ` _ ( ( ` ` ` ` ` ` ` ` ` _ < ( ` ` ",
"J ` ` ` ` ` ` ` ` ( ! ( ` ` ` ` ` ` ` ` p ` ` ` ` ` ` ` ! ` ` ` ` ! ( _ ` ` ` ` ` ` ` a ` ` ` ` ` ` ` ` ` ! ` ` ` ` ` _ 4 ` ` ` ",
"` ` ` ` ` ` ` ` ` ` ` ` ` ` ` ` ` ` ` ` p ` _ ` ` ` ` ` ( ` ` ` ` ` ` ` ` ` ` ` ` ` ` a ` ` ` ` ` ` ` ` ` ` ` ` ! _ ` _ 4 _ ` ` ",
"` ` ` ` ` ` ` ` ` ` ` ` ` ` P ` ` ` ` ` p ` } P ` ` ` ` ! ` ` ` ` ` ` ` ` ` ` ` ` ` ` s ` ` ` ` ` ` ` ` ` ` ` ` d.` ` ` 2 ` ` ` ",
"! ! ! ! ` ` ` ` ` ` ` ` ` ` ` ! ( _ ` M 7 ` ` ` ( ! ! ! _ ` ` ` ` ` ` ` ` ` ` ` K K K 4 ( _ ! ! ! ` ` ` ` ` ` ` ` ` ` _ , ` ` ` ",
"` ` K ` ( _ ` ` ` ` ` ` P P ` _ j * 7.-.4 / ` ` ` ` ` ` ^ ` ` ( ! K ` ` ` _ ` K J K ! 4 ` ` ` ` ` ` ` ` ` ` _ _ ` ` ` ` > ` ` ` ",
"J G.^ L Y _ _ _ _ ` _ ` _ ) n j.,.E E F P.D _ ( J G G G F G F F P / P D H D F ` ` ` F : E _ G F F F G G ^ ` F F G ` ` F & _ _ _ ",
"8.7.7.8.8.,.} $.7.7.7.7.@.( ` ` ` ( ` -.0.` ` / ` ` ` ` ` ` ` %.( _ ` _ ` ( ` q.;.` ` ` ^ _ ` ` X.,.` 7.5 d._ ` ` ` _ ` _ ` 0.8.",
"` _ ` ` ` ` ` ` ` ` _ 8.{ ( _ ( ( ( ( ( _ ` ` ` ` ` ` ` ` ` ` &.K ` ( ( ( ( ( _ ` ` ` ` ` ` ` P +.-.+.( a ( ! E ! P P K P ` ) ` ",
"` ` ` ( ` ` ` ` ` ` ` ` ' ( ` ` ` ` ( ` ` ` ` ( _ ` ( P ` ( ` &.K K K ` ` ` ( ` ` ` ` ( ` ` _ +.,.,.+.-.f ` ` ` ` ` ( ` P ` ` ` ",
"` ( J ! ` ` ` ` ` ` ` ` V _ ` E F P P D ` ` ! ! ` ` ` ` ` ` `  .K K K K ` ` ! Y P _ ( ! ` | 4.,.,.,.,.:.p ` ` ` ` ` ` ` ! ` ` ` ",
"` ` ` ` r ` ` ` ` ` ` ` C ` F P P K K P F ` ` ` ` ` ` ` ` ` ` [ K K K K P ` ` ` ` ` ` ` ` $.,.,.,.,.,.;.p ` ` ` ` ` ` ` ( ` ` ` ",
"` ` ` ` ` ` ` ` ` K ` _ h ` ` ! -.` P P P P ` ` ` ` ` _ ` ` ` M K K K K K ` ` ` ` ` ` ` | $.,.,.,.,.,.` a ` ` P ` ` ` ` ! ` ` ` ",
"` ` ` ` ` -.` ` K K K _ f ` _ ! ! ! ` ` ` P P X.` ` ` ` ` ` ^ l b K J J S K ( ` ` ` ` ,.,.,.,.O.,.,.$.e a E ` ( ! ! ! ( _ ` ` ` ",
"` ` ` ` ` t ` ` K K K F 4 ` ` ` ` ` _ ` ` ` ` ` ` ` ` ` ` ` S d +.} . m S K ` ` ` ` ` ,.,.,.,.,.,.Q | / p ` ` S ` ` ` ` ` ` ` ` ",
"G E J G G # G G P ` F F ; S ` G F F S D S D E S D D D S ` G D d H t D ` M P K _ ^ ( _ _ _ _ E _ ( _ _ _ o.F ^ _ F F F F F F F F ",
"` ` ` _ ` ` ` 8.&.,.` _ ` ` ` ` _ 8.8.0.7.4.7.8.;.Q X.7.7.9.s.B ( ! ! P K ` ,.Q E ! T ! ! T ` _ ] Q _ ` ` ^ ) ( / ( 7.| 1._ _ ` ",
"` ` ! ! ! ! ! ` i.! ! ! ! P P P P ` ` ` ` ` ` ` ` ` / / ` | 8.6 Y K P P P P P E ! ! ! ! ! F ` ` C ( ` ( ( ! ( ( ( ! ` 7./ ` ` ` ",
"` ` ` ` ` ` ` _ a.` ` ` ` ` ` ! K ` ` ` ` ` ( ` ` ` ` ` ` ` _ 4 ! E ! ! ! ! ! ! ! K ! ! K Z ` ` v ` ` ` 8 ` ` ` ` ` ` ` ` ( ! ` ",
"` ` ` ` ` ` ` _ O.` ` ` ` ` ` ( ` ` ` ` ( ! E ( ` ` ` ` ` ` _ s ! E ! E ! E ! ! P J ! ! ` _ _ _ v ` ` ` ` ` ` ` ` ` ` ` ` ! ( ` ",
"` ` ` ` ` ` ` _ } P ` ` ` ` ` ! _ ` ` ` ` ` ` ( ` ` ` ` ` ` ` 4 ! ! ! E ! ! ! ! ! ! ! ! E ` _ _ h ` ` ` ` ` ` ` ` ` ` ` ` ` ` ` ",
"` ` ` ` ` ! K / Q _ ;.` ` ` ` ! ` ` ` ` ` ` ` _ ` ` ` ` E ` ` 4 ! ! ! ! ! ! ! E ! ! ! ! ! ` ` ` 1 ` ` ` ` ` ` ` ` ` ` ` ` ` ` ` ",
"` ( ` ` ` Q b p Q ! ` ! ! ! ! ! ( ` ` ` ` ` ` ` % ` ` K K K ^ s E K K K E K ! E ! ! ! ) t P ` ` 1 ` ` ! ! ( ! _ ! ` ` ` ` ` ` ` ",
"` ` ( M #.| +.D I ` ` t ` _ _ _ _ _ ` ` ` ` ` ` | ` ` K J K H s ! ! ! _ _ _ _ _ ! ! ` ` ` ` ` ( < ` ` ` ` R K _ ` x F t ` ` ` ` ",
"` F O.P y y F F z F ) U H H H F H D G S H ! G F J D F ! ` F F d F ( F G F F F G H H F G F J ( F $ _ _ Y G.K.N.Y P _ ` ` ` ` ` ` ",
"( ) ( r._ ` ` _ ` / 7.` 8.8.8.7.8.s.( ` ` ` ! ` c.Y.7._ ( | ) ) ` } } | f 7.0._ X.X.X.2.5.Z.A.W.T.R.P.P.P.P.P.^.~.6 0.` ` ` ` ( ",
"( ( ( ` ` ` ` ` ` ` O.! ! ! ! P ( s.( ( ( P ( ( ` ` 5.` ` ` ` ` ! ! ! ` a ! P P Y P P P ` ` ` ` ` ` ` _ ` ` ^ ( 7.p ( ` ! ( ( ( ",
"` ` _ ` ` ` ` ` ! ` ` ! ` ` ` ( ! 8.` ` ` ` _ ( ( ` ( ` ` ` ` ` ` ` ` ` 7 ` ` ` ` ` ! P ( ` ` ` ` _ ` ` ` ` ` | i 4 ( ` ` ` ` ` ",
"` ` ` ` ` ` ( ! ` ` ` ` ` ` ` ` ! X.` ` | ` ` ` ` ` ` ( ( ` ` ` ` ` ` _ a _ ` ` ` ` ` ! ` ` ` ` =.^ ` ` ` ` ` ` _ 4 ` ` ` ` ` ` ",
"` ` ` ` ` ` ` ` ` ` ` ` ` ` ` ` ! } ` ` ` ` ` ` ` ` ` ` ` ` ` ` ` ` ` ` 7 _ ` ` ` ` ` ( u ` ` ` ` ` :.` ` ` ` ` ` p ` ` ` ` ` ` ",
"` ` ` ` ` ` _ ` ` _ / _ ` _ ` ` ` X.` ` ` ` ` ` ` ` ` ` ` _ ` ! ` ` ( ` 7 _ P ` ` ` ` ! +._ ` ` ` ` ` ` ` ` ` ` ` p _ ` ` ` ` ` ",
"! _ ` ` ` ` ` k k 8.8.X.8 9 ( ` ` ` ` ` ! ( ! ` _ ` ` ` ` ` ` ` E ` | b 5 Y ( ! ! ( ! _ +.:.` ` ` ` ` ` ` ` ` K ` s ( ` ( ! ! ! ",
"` ` ` ` ` ! X.` ` ` _ _ / ^ ;.^ ! ` ` ` ` P J _ ` i ` ` ` _ ! ` M   } ;.7 _ ` A +.+.;.;.+.i _ ` ` ` ` ` ` ` J K ` 4 ` ` ` ` ` ` ",
"H H F H 9 F K ! D H H H D J ` G F ` ` ` q.K.K K ` ` ` ` ` ` / B +.) k D 1 F ` X.S F H F F Z F F ` D F k F J ` ` F B.D ! ` G H H ",
"_ ` / ` ` ` ` | g e.( _ _ ` ` ` ` ! 7.8.8.8.8.8.7._ ( O.0.s.s.s.f.| ` ` _ ` ( ` U 8.8.8.a.7.8...} 4.8.7.0.6 s.( _ _ ( E ` 4./ _ ",
"` ` ` ( ! ! ( ` m ( ! E ! P P P E i / ` _ _ _ ` _ _ ` ` ` ` +.8.s.q 8.<.P P K ! 0 J ! ! ! ! ! + ` ` ` ` 8.s E ` ( ( ) ( ( ` 7.` ",
"` _ ` ` ` ` ` ` v ` ` ` ` ` ( ( P ( ` ` ` K ` ` ` ` ` ` ` ` _ X.+.;.O.;.-._ ( P U ! ! ! ! P ! <.` ` ` ` ` s ( ` ` _ ` ` _ ` ( ` ",
"! ` ` ` ` ` ` ` b ` ` ` ` ` ` ` ! ` ` ` ` ! J ` ` ` ` ` ` ` ` ` ( O.O.O.O.O.X.! ! ! ! U K F ! ! ` ` ` ` ` 4 ` ` ! ` ` ` ` ` ` ` ",
"` ` ` ` ` ` ` ` j ` ` ` ` ` ` ` ` ` ` ` ` ` ` ` # ` ` ` ` ` ` ` X.O.O.O.O.O.O.` ! ! ! ! ! ! P ! O ` ` =.` 1 ` ` ` ` ` ` ` ` ` ` ",
"` ` ` ` ` ` P ` g ^ ;.` ` ` ` ` _ ` ` ` ` ` ` ` ` ( ` ` ( ( ` _ O.O.O.O.O.` _ ` ! ! K ! ! ! ! ! ! ` | ` _ w ` ` ` ` _ _ ` ` ` ` ",
"` ` ` ` ( ( c X d P ` ! ! ( ( ( ( ` ` ` ` ` ` ` ` | ` ` K K K ` O.O._ ! ! ! ( ( ! ! ! ( ` X.-.-.-.-.J K K p ` _ ! ( J _ ! ` ` ` ",
"` ` ` _ B g.} Q g ` ` r ` ` _ ` ` ` _ ` ` ` ` ` ` r ` ` K P J F X.O.-.` _ ` ( ` _ ( _ O.-.-.-.-.-.| K K ` s ` ` ` ! L ` ` t t ` ",
"^ ^ _ d ( y t G d F ` ` S H H F H F D F F ` F D F c S D ` ` H H F H *.H D F H F F F F S ) H F x H F ` P D G._ ` P K.N.K Q _ _ _ ",
"8.4.9.8.8.X._ O.9.s.h.s.B ( ` ` ` ` 4.k.K J ` 8.s.m.v.p.v r.` _ ` ` ) ( ` 1.P.+.` ` ! Q ;.) -.8.7.7.7.7.p a.| ` _ ` ` ` ` ` 7.8.",
"` ` ` ` _ ` ` _ ( ` ( 8.4 ( ( ( ( ( ( P P E P K J K P J 4 ( _ ( ( ( ( ( ( ( ` ` ` ` ` _ ! ! ! ! ! ! ! } p ) ! K E P P P P | ( ` ",
"` ` ` _ ` ` ` ` ` ` ` ` 4 ` ` ` ` ( ( ` ` ` ( P P P P P f ` ` P ` ` ` _ ( ( _ ` ` ` ` _ ` ` ` ` ` ! ! _ p ` ` ` _ ` ( ( P ! ` ` ",
"` ! J ( ` ` ` ` ` ` ` ` p ` ` ` ` ` ` ` ` ! ` ( P P P L f ` ` ` ` ` ` ` ` ` ` ` ` ! ! ` ` ` ` ` ` ! ! ` 5 ` ` ` ` ` ` ` ! ` ` ` ",
"` ` ` ` + ` ` ` ` ` ` ` 7 ^ ` ` ` ` ` ` ` ` ` ` ` ( U T 7 ` ` ` ` ` ` ` ` ` ` ` ` ` ` ` ` ` ` ` ! ! ! _ a | ` ` ` ` ` ` ( ` ` ` ",
"` ` ` ` ` _ ` ` ` E _ ` 4 K ` ` ` ` ` ` ` ` ` ` ` ` ` P 4 ` ` ` ` ` ` ` ` ` ` ` ` ` ` ` ` ` ` ` ! ! ! ` a ` X.( ` ` ` ` ! ` ` ` ",
"` ` ` ` ` <.` ` K K K _ 5 _ F D ! ` ` ` ` ` ! ` ` ` ` U s ! ` ! ! ( ! ( ` ` ` ` ` ` ` ` ` ` ` ` ` ! ! ` a ! ` ( ! ! ! ( _ ` ` ` ",
"` ` ` _ ` q ` ` J K K F 5 _ ` ( ` ` ` ` ` ` ` _ ` _ ` ! s ` _ ( ` ` ` ` ` ` ` ` ` ` ` ` _ ` ` ` ` ^ _ H 5 ` / P _ _ _ _ ` _ ` ` ",
"H | P H G t S H ` ) D H = ` S ` ` ) ` ^ ` ` ) ` ` ` / ` - H ` ) H F F H H H H H H | ~ H H H H D ` ` S H l D ( ` H H D K H D D H ",
"` ` ` e.,.Y.l.!.p._ _ _ <.;.O.( ( +.x.a.5 j.x.0.2.5.r.y.k.u.T.T.!.!.!.P.K.K.C.K.P.!.~.6 0.,.,.,.,.x.h.T.,.,.-.} _ _ 4.a.3 f.+.` ",
"( ( | ( ( ` ` 8.<.` ` ` ` ` _ ( ( ! _ ` 4 ` P P P Y P P P ` ` ` ` ` ` ` _ _ ` ` ` =.8.5 +.+.-.-.-.-.,.,.,.,.;.,.,._ ` ` < ( ` ! ",
"` 8 ` ( ( ( ` ` ` ` ( ( ` ` ` ` ` ` ` ` p ( ` ` ` ` P ( P ( ` ` ` ` _ ` ` ` ` ` ` ` ` 4 ,.-.` ` -.=.X.` ` ` _ ` ` U S _ 4 ( ` ` ",
"P ` ` ` ` ` ` ` ` ( ! ( ` ` ` ` ` ` ` ` p ` ` ` ` ` ` ` ! ` ` ` ` ! ! ` ` ` ` ` ` ` ` p ,._ ` ` ` ` ` ` _ ! ` ` ` ( ` _ 4 _ ` ` ",
"( ` ` ` ` ` ` ` ` ` ` ` ` ` ` ` ` ` ` ` p / ` ` ` ` ` ` _ ` ` ` ` ` ` ` ` ` ` ` ` ` ` a ,.` ` ` ` ` ` ` ` ` ` ` ` ` ` _ 4 _ ` ` ",
"` ` ` ` ` ` ` ` ` ` ` ` ` ` P ` ` ` ` ` p ) X.P ` ` ` ` ! ` ` ` ` ` ` ` ` ` ` ` ` ` ` a ,.` ` ` ` ` ` ` ` ` ` ` ` ` ` _ 4 _ ` ` ",
"! ! ! ! ` ` ` ` ` ` ` ` ` ` ` ! ( _ ` M 5 ` ` ` ! ( ! ! ` ` ` ` ` ` ` ` ` ` ` ` K K P 5 >.` ! ! ! ` ` ` ` ` ` ` ` ` ` ` 2 ` ` ` ",
"` ` K ` ! ` ` ` ` ` ` _ E P ` ` v o 8.+.p ` ` ` ` ` ` ` ( ` ! ( ! P ` ` ` ` ` K K K ( 4 ;.` ` ` ` ` ` ` ` ` ` ` ` ` ` ` , ` ` ` ",
"K _.@.K K ` _ ` ` ` ` ` ` ` B b.;.Q ! F ).G ` ( K F F F F D D S ! ` K F F c H ` ` ` F 3 ! ` F D D D D F ` ` F F F ` _ F @ _ ` ` "
};
