/* XPM */
static char *de6420e0d7514beebb662b809c21ac6cIT5o2isWR90VVEec[] = {
/* columns rows colors chars-per-pixel */
"64 64 256 2 ",
"   c #631F17",
".  c #5E2415",
"X  c #6D2B0D",
"o  c #662618",
"O  c #792C1A",
"+  c #69351A",
"@  c #7D331C",
"#  c #7A381A",
"$  c #5F2822",
"%  c #752D25",
"&  c #6B3826",
"*  c #783928",
"=  c #683C33",
"-  c #763B33",
";  c #6D402D",
":  c #79452B",
">  c #794837",
",  c #7A5337",
"<  c #643E41",
"1  c #785446",
"2  c #79674D",
"3  c #862C17",
"4  c #85361B",
"5  c #8B331C",
"6  c #94351D",
"7  c #98371D",
"8  c #A43C1C",
"9  c #822E23",
"0  c #853323",
"q  c #8B3522",
"w  c #853927",
"e  c #8D3A25",
"r  c #84352A",
"t  c #933722",
"y  c #9A3627",
"u  c #933B25",
"i  c #9B3C24",
"p  c #933C2A",
"a  c #9C3D2A",
"s  c #863933",
"d  c #A23D25",
"f  c #A73E28",
"g  c #A13D30",
"h  c #8E411F",
"j  c #894528",
"k  c #9C4226",
"l  c #96452A",
"z  c #9C432B",
"x  c #864A37",
"c  c #9D4C32",
"v  c #8C563C",
"b  c #875838",
"n  c #8C593E",
"m  c #955537",
"M  c #9E5434",
"N  c #A3442B",
"B  c #A74628",
"V  c #AB442C",
"C  c #B54B2B",
"Z  c #BB532E",
"A  c #A64732",
"S  c #AC4A32",
"D  c #B44C33",
"F  c #BA4C35",
"G  c #AB5234",
"H  c #A65638",
"J  c #A45B3A",
"K  c #B45335",
"L  c #BD5435",
"P  c #B55837",
"I  c #BD5835",
"U  c #BD553A",
"Y  c #B35A3C",
"T  c #BD593B",
"R  c #99663E",
"E  c #AA653C",
"W  c #B8613E",
"Q  c #C34F34",
"!  c #C25536",
"~  c #C25935",
"^  c #C2553A",
"/  c #C9573B",
"(  c #C35A3C",
")  c #C95D3D",
"_  c #C4603F",
"`  c #C9623D",
"'  c #D4703E",
"]  c #855746",
"[  c #8D5B42",
"{  c #865048",
"}  c #935C44",
"|  c #935A4A",
" . c #A55D47",
".. c #B65844",
"X. c #BB5C41",
"o. c #8C6446",
"O. c #966547",
"+. c #9D6B45",
"@. c #956B4B",
"#. c #9C6D4B",
"$. c #9B7149",
"%. c #896C56",
"&. c #976952",
"*. c #9A7456",
"=. c #A66645",
"-. c #AB6443",
";. c #A26B45",
":. c #A66749",
">. c #A26D4B",
",. c #AA6B4C",
"<. c #B96846",
"1. c #A57144",
"2. c #A4714B",
"3. c #A66C54",
"4. c #A67455",
"5. c #B57152",
"6. c #986E6B",
"7. c #9C7467",
"8. c #A87B64",
"9. c #B3766D",
"0. c #C65545",
"q. c #C45D42",
"w. c #CA5D42",
"e. c #D25D43",
"r. c #C56243",
"t. c #CB6343",
"y. c #C36B47",
"u. c #CD6946",
"i. c #CB654C",
"p. c #CD6B4A",
"a. c #D16645",
"s. c #D26947",
"d. c #D3664A",
"f. c #D36B4B",
"g. c #D96D4D",
"h. c #CA744B",
"j. c #D97645",
"k. c #D5724E",
"l. c #DB744D",
"z. c #D47B4D",
"x. c #DB7A4D",
"c. c #CA6A54",
"v. c #D56D52",
"b. c #D86B58",
"n. c #CC7553",
"m. c #C77559",
"M. c #CD7D5B",
"N. c #D67352",
"B. c #DB7654",
"V. c #D57A55",
"C. c #DB7955",
"Z. c #D4755A",
"A. c #DC755B",
"S. c #D57B5A",
"D. c #DC7C59",
"F. c #EB6A40",
"G. c #E3754D",
"H. c #E5784C",
"J. c #E17555",
"K. c #E27C55",
"L. c #E2735C",
"P. c #E17C5B",
"I. c #EB7B58",
"U. c #CA7866",
"Y. c #D47B65",
"T. c #DB7B63",
"R. c #D37269",
"E. c #E57A63",
"W. c #E27E77",
"Q. c #9E8270",
"!. c #B68B6D",
"~. c #AB8A76",
"^. c #B98978",
"/. c #B3977D",
"(. c #D28252",
"). c #D88358",
"_. c #DC825D",
"`. c #E3825D",
"'. c #E98659",
"]. c #CA8668",
"[. c #DB8462",
"{. c #DC8A63",
"}. c #D9886A",
"|. c #DD956B",
" X c #D68A73",
".X c #D18D77",
"XX c #E38463",
"oX c #E38A65",
"OX c #E78768",
"+X c #E38A69",
"@X c #EE8B6B",
"#X c #EA8C6A",
"$X c #E4936B",
"%X c #EC956C",
"&X c #EB9572",
"*X c #EB9874",
"=X c #F29B77",
"-X c #B37C87",
";X c #9D878B",
":X c #A89388",
">X c #B99888",
",X c #B09091",
"<X c #B99994",
"1X c #B1A593",
"2X c #B9A59A",
"3X c #A59FA3",
"4X c #BAA9AA",
"5X c #B8B6AE",
"6X c #C38980",
"7X c #C39988",
"8X c #C39B97",
"9X c #F29E88",
"0X c #CDA68D",
"qX c #CAA79A",
"wX c #C9ADA4",
"eX c #C9B6A8",
"rX c #D3B7A9",
"tX c #CEB6B6",
"yX c #E5BBB0",
"uX c #CFC7B0",
"iX c #D8C6BA",
"pX c #E5CCB8",
"aX c #BDBCC9",
"sX c #CCBCC7",
"dX c #BBC8CE",
"fX c #C8C6CA",
"gX c #D6C8CA",
"hX c #CAD1CA",
"jX c #D2CCD0",
"kX c #D9D9D6",
"lX c #E5D3C7",
"zX c #F2D5CE",
"xX c #EBDAD4",
"cX c #D2E6DA",
"vX c #E9E5DB",
"bX c #F2ECD6",
"nX c #F9E7D9",
"mX c #C9D5E5",
"MX c #DBDAE6",
"NX c #E0D8E2",
"BX c #D4EAF0",
"VX c #E6E7E9",
"CX c #F7EBE4",
"ZX c #E7F8EB",
"AX c #F8F7E9",
"SX c #FCF4EB",
"DX c #E5EAF6",
"FX c #FFEEF8",
"GX c #E9F8F9",
"HX c #F5F5F3",
"JX c #FAF7F5",
"KX c #FDFAF3",
"LX c #F5F4FC",
"PX c #FCF6FB",
"IX c #F4FCFD",
"UX c #FCFBFD",
/* pixels */
"pXqX>X~.~.~.>XeXnXPXKXzXqX>X/.~.>XpXlX2X&.,.>.0XAXGXIXSXAXUXCXAXIXKXzX<X<XiXSXHXIXKXCXwX~.~.rX7X8.3.8.qXqX2.E 1.*.Q.~./.uXnXCXCX",
"tXsXxXgX4X;X;X,XsXiXeX2X<X2X8X,X8X8X$XOXh.O.*.LX-XF.' 5.I.6XDX9.Z.Z.m.!.0X5.].9.!.:X1XjXIXIXcXhXhXeXtXmXGX~.1.^.8.^.^.^.^.>X7X8X",
"B.B.P.N.C.B.B.C.C.L.L.A.T.A.x.x.x.G.W. X..>.uXeX{.).).(.C.).S.J.K.H.G.B.T.S.N.B.C.S.S.n.<.r.Z.T.J.H.(.R.VX3X..M.+XXXT.C.C.C.B.N.",
"A.A.Z.S.D.C.Z.C.C.B.C.V.V.V.S.S.S.S.I.C.I ,.4.c.j.m.Y.E.Y.S.C.M.M.S.B.L.T.C.N.C.S.L.L.C.C.C.C.V.S.S.B.m.m 5.<.h.P.k.N.B.P.B.B.B.",
"B.B.C.D.N.N.N.B.B.B.B.N.N.N.B.B.l.B.M.Z.Y ,.2.y.y.a.C.D.j.j.A.G.A.B.B.S.B.x.x.B.C.z.C.N.B.J.B.B.N.V.N.h.G ,.$.<.k.t.C.).V.C.A.A.",
"C.C.C.C.C.B.B.B.C.B.B.B.B.B.B.B.C.C.f.v.P =.;.T t.r.N.B.C.C.B.B.B.B.B.B.B.B.B.B.B.C.C.C.C.C.B.B.C.C.B.q.G ;.$.T t.r.d.B.C.C.B.B.",
"C.C.C.C.B.B.B.C.D.B.B.B.B.B.B.B.N.g.f.p.A =.;.U T r.u.u.k.B.B.B.B.B.B.B.B.B.B.B.B.P.B.C.C.B.B.B.k.f.p.T G ;.+.U T ~ a.p.f.N.B.B.",
"k.N.C.C.B.B.B.P.K.K.K.N.N.N.f.s.f.f.u.( N =.;.U U L ` f.f.g.f.N.B.N.K.K.B.B.B.C.D.B.N.N.N.k.g.f.s.f.f.L N ;.+.T L L ( s.s.s.s.s.",
"s.s.s.s.f.k.k.k.k.s.s.s.s.s.s.s.s.) L T k =.2.L ( L L ) t.s.f.k.f.s.s.s.f.f.f.f.k.g.g.f.s.s.f.s.s.r.( L N =.+.K I L ! ( r.s.f.g.",
"f.g.a.u.f.g.g.f.p.f.s.p.p.f.g.d.w.^ U T a 5.>.A L I T T T ( t.u.p.g.s.s.p.p.a.g.g.f.f.f.g.g.k.a.) ^ L U y :.4.z ^ ^ ! L ! ! ) e.",
"! ! ! ^ / ) ) a.` a.t.a.` ) L Z ! T L D 5 5.+.k ! L L L I I L L L ! ) _ i.i.r.y.y.y.u.u.u.r.L L L L U S 3 3.+.h P ( T X.X.Y T U ",
"6 z z i d N z z k u 5 q l u 6 6 6 t i u O | @.q y a V V d d y y i B d A X.D V F C S B B B f f V f 8 a p O 3.>.3 7 8 8 V V g 7 i ",
"1 6.1 x j : 6.iXSXKXxXwX6.6.> = ] 7.6.,XLXHXUXiXAXAXAXiX2XxXKXgX{ = - x * # : & - * * * * - - * - * # # m E R &.x : x x x > , > ",
"UXIXUXeX@.AXIXBXGXPXUXIXVXkXiXeX4X2X;XfXmXdX3X6.6.NXLXPXUXgXsXVXIXHXAXlX8.:XKXlXhXpXzXnXCXSXSXSXxXxXzX,XtXyXzXlXCXSXKXSXSXPXIXIX",
"qX7XgXvX&.HXgXU.uXcX9.E.[.].#XoX#X#XoX#X#X#XoX|.*X*X9.3.].oXXX}.b.R.!.$.,.AX.XG._.K.K.`.`.`.XXXXD.`.J.K.K.K.K.XX+X}. XK.`.}.6XrX",
"x.'.m.[ ~.DX7Xk.OXT.OX)._.OX+X$X$X{.oX{.{._.S.E.B.j.(.l.k.x.K.N.)._.m.H :.0X Xy.E.N.N.N.C.C.C.B.C.N.C.C.N.N.B.B.N.N.B.S.N.g.I.x.",
"S.L.i.G @.7.$Xh.c.M.B.B.A.A.D.K.B.B.B.B.B.B.B.V.V.S.A.J.B.V.S.T.B.C.c.H +.y.y.n.v.B.C.B.B.B.B.B.B.B.C.C.V.C.C.V.V.B.B.z.B.V.D._.",
"B.v.<.S ,.E h.e.u.B.J.C.S.B.B.C.B.B.B.B.B.B.B.B.S.A.B.B.B.B.D.V.J.k.` J @.X.<.r.u.N.B.B.B.B.B.B.B.B.B.B.C.C.D.B.B.B.B.B.x.C.D.B.",
"f.f.D H +.-.( r.q.a.g.J.B.B.C.C.C.C.Z.C.C.C.C.B.C.C.C.N.C.D.N.B.v.p.D H +.E L r.r.f.g.B.B.B.B.C.C.C.C.C.D.D.C.B.B.C.C.B.B.C.N.N.",
"s.t.V M +.E L ( q.s.s.s.g.B.C.C.B.B.C.D.D.C.C.B.B.B.B.D.C.B.k.p.s.p.V H >.E L L q.s.f.g.N.B.B.C.B.B.C.C.D.C.C.B.B.B.C.C.C.N.f.f.",
"u.T f c +.J L r.U ( g.g.s.a.f.f.k.N.C.C.C.B.B.N.N.N.k.k.f.s.s.f.f.T V M +.H L P U ! g.N.g.s.f.f.g.k.N.N.B.B.N.N.N.N.g.f.s.p.s.f.",
"L U f l +.M ( r.U ( ! ) a.g.s.s.f.g.s.u.p.p.p.s.s.g.s.f.s.s.s.u.L P S l ;.J L T T ( ) ) t.s.s.s.s.s.f.f.u.u.u.f.f.s.g.g.g.g.s.r.",
") q.f 4 +.M ( ) ( ) ( L L L ) u.s.f.f.s.s.s.s.g.g.g.f.f.s.a./ L ( q.V 4 >.J L T T L L L L L ( r.s.s.s.s.s.s.s.f.f.N.f.u.u.q.( L ",
"P V 6 @ ,.m a q.! ^ ! Z ! 0.0.X.P I ! U ( ! L Q ` ( U z p 6 C C L C 6 4 >.m z ..X.^ L P P U L L L L ^ T U U L U W Y D Z C C C C ",
"O @ @ v *.>X| r * x # 4 q u e j e y w e q 0 9 - o o O   o X X X % 0 @ j #.[ + * * r w 4 q 0 w x w * @ 4 @ 3 @ @ @ O & O O % % % ",
"fXPXUXUXGXGXDXLXJXGXIXUXUXUXIXHXlXrX1 &.v ] } b b , :X:X<XxXPXUXnXqX%.%.*.4.o.o.^.iXQ.] ] b o.b o.v b v v b , iXUXDXKXIXIXPXSXlX",
"k.S.S.n.h.n.h.(.`.9.iX5X^.W. X>XeXZXnX}.5.$.,.y.Z. X9.^.^.7X8XwXiXxXCXHXMXaXfXBXBXPXUXHXVXGXDXLXLXMX].].5.;./.JX5XkXZXnX9.m.f.G.",
"oXD.D.D.D.B.B.B.B.S.D.B.B.V.C.C.P.`.[.#XH ;.+.S.S._.%X=X&X*X=X=X*X*X&X&X%X%X%X%X&X=X=X&X&X%X#X#X#X`.S.OX<.>.bXVXY.XXW )._.`.XXXX",
"N.C.C.C.C.B.B.C.B.C.C.B.B.B.C.C.N.C.D.XXY =.+.n.S.k.).S.V.V.C.C.S.V.N.N.V.V.V.C.C.V.C.C.B.N.N.N.C.D._.S.H >./.8._.p.C.N.N.N.B.C.",
"B.N.B.B.C.B.C.C.C.C.B.B.B.B.C.C.V.C.`.P.Y =.+.<.N.k.N.D.D.B.B.B.C.B.N.N.N.N.N.C.B.C.D.N.N.N.B.B.B.B.{.i.H :.3.<.'.p.A.C.C.B.N.B.",
"B.B.B.B.B.B.B.C.D.C.C.B.B.B.C.C.C.D.N.f.P =.+.r.p.t.N.N.B.B.B.B.D.C.B.B.B.B.C.C.C.D.C.C.B.B.B.B.B.B.N.r.G :.>.<.s.t.b.C.D.C.B.B.",
"B.B.B.B.B.B.B.D.P.C.B.B.B.B.C.C.N.p.p.N.i =.;.U r.r.p.N.N.N.B.B.D.C.C.C.B.C.V.S.S.D.C.C.B.B.B.B.B.g.a.) G +.#.Y / r.y.s.N.B.B.B.",
"N.N.C.C.C.C.D.D.D.C.C.D.D.C.k.k.s.f.f.r.t :.2.T ! ! t.f.s.f.N.J.B.B.C.C.C.N.B.B.B.C.C.C.C.B.B.N.s.s.f.T N =.;.<.L I w.s.s.g.g.g.",
"f.f.k.k.k.N.N.N.N.N.N.f.p.s.s.a.f.u.r.U 5 ,.2.L ! ! ! t.s.f.f.f.f.f.k.N.B.B.B.B.B.N.N.k.k.g.v.g.s.s.) D z =.2.H L L U ) u.s.s.s.",
"f.s.g.u.g.u.s.s.s.g.v.f.s.v.s.f.t.( L D q 5.+.D ! ^ ! L ) t.s.f.s.s.s.s.g.g.f.s.s.s.s.s.g.k.g.s.t.( L U a =.+.z ( L U L L r.u.f.",
"( ) t.a.u.s.f.f.g.v.v.f.v.t.q.U ( ! ^ V 3 ,.+.B ^ ^ ! L L L ! ( r.r.s.g.g.g.s.s.s.s.s.g.g.a.r.) L L L D 5 ,.+.u ! L U ! ( L L L ",
"U K ( ~ I ! Q V B A A i t t 6 6 a A A u O ;.;.4 K ( ( q.( I / 0.I I ~ P ( L Z ! ! ) ( q.V D D F D D S g p 3.>.4 S K U r.U K K U ",
"r s s s & . . o o . . o o . o o   o     o &.3.* O r s r r w * # r s r p 0 # * o + o * x v x - o & & 4 3 # +.@.{ % O r 9 r r r r ",
"ZXbX*.1.E 3.@.*.*.@.@.O.O.O.O.O.#.8.!.!.+.+.R R @.@.&.O.+.$.7XxXCXKXAX4.;.&.zXMXmXMXMXLXLXUXUXUXPXUXIXIXVXDXIXIXIXUXLXAXCXvXvXCX",
"}.}. X .+.vXyX5.c.v.c.c.i.i.c.c.m.m.].|.].[.[.Y.]..X9X].9.>XkXBXPXPXIXCX#.,.M.[.{.|.|.$X$X{.{.{.).).(.{.$X{.(.}.|.|.{. X X X].].",
"S.S.v.H R kX.XoX_.C.V.C.D._.D.D.V.D.D.V.Z.N.A.C.V.V.z.).N.B.A.m.Y.x.| zX>.5.&X=X{.OXXXOXOXXX_.oX+XoXoXOXXXoX+X+XoX{.oX+X+XXX[.D.",
"C.D.p.M +.5.D.p.N.B.B.B.B.B.B.B.B.B.B.B.C.B.B.B.B.B.B.N.C.C.D.C.S.D.N.M +.<.N.k.N.D.D.C.D._.XXXXXXXXXXXX[.XXOXXXXX`.`.XXXX`.D.D.",
"N.N.r.M +.5.r.r.v.B.B.B.B.B.B.B.B.B.B.B.B.D.B.B.B.B.B.B.C.D.C.C.C.Z.i.J >.<.) t.v.C.C.C.D.D.C.C.D.XXXXXXoXoXoXD.D.D.D.B.N.B.B.N.",
"k.s.D H +.-.( r.u.f.C.C.C.B.C.C.B.B.C.C.P.B.B.B.B.B.B.C.C.B.C.N.N.p.U J +.-.! r.t.g.N.B.D.B.C.C.C.C._._.D.D.C.C.C.B.C.N.C.C.C.C.",
"t.f.V c +.E ^ / r.s.s.N.B.D.B.C.B.B.B.P.B.B.B.B.B.B.B.B.B.N.N.g.f.f.S J +.Y L T w.s.g.B.B.B.N.B.C.C.C.Z.C.C.C.B.B.C.C.B.B.B.N.s.",
"s.r.V c +.J U U ( u.B.f.s.s.N.N.B.B.D.B.C.B.B.D.B.B.B.N.N.v.f.s.g.r.S M +.J ! U U t.f.f.a.g.g.N.B.B.C.B.B.B.N.B.B.B.B.B.g.f.f.g.",
"( q.V l >.J T U ! ( ) s.f.g.f.f.f.f.f.f.f.f.f.g.g.g.s.g.f.f.f.s.) r.V c +.J ^ U U L ( u.s.s.s.f.f.g.u.u.p.p.p.f.f.f.f.f.f.f.f.s.",
") U B 4 +.J ^ ! ! I I I ( t.s.s.g.g.f.f.f.s.f.f.B.f.f.f.f.s.t.( ~ L V l +.H L U ! L ~ L ( t.u.u.f.u.s.s.f.f.f.f.g.f.a.f.f.a.) ! ",
"U K 6 4 O.m D U L U U U U U L w.( ) u.d.g.v.v.N.g.u.r.t.q.T ( q.( K d 4 +.M D r.^ L L ^ ^ ^ ( w.U U ^ ^ w.w.w.` ` t.` 0.^ F F ^ ",
"6 5 5 * *.m t N S V V d d d S d V V V S S S S B N d i i a a g g i t 5 w #.m c u N k k u t u a a k k z z z z z u u u t u u u a u ",
"<X8.> O.@.&.{ ~.tX>X= > & ] - - & & < X o & - & & + + & & = . ; & $ 6.8.#.^.SX1 x , , , , x > , > > > 1 : : x x /.jXjX7.2 8X- %.",
"4XtX,XCXAXxX>X:XiXDXBXVXUXGXZXZXGXIXFXGXLX, | M 3.rXKXIXDXhX5XvXPXLXVX1X:X4XaXfX5XwXwXrXrXtXjXCXKXKXGXVXHX,Xm HXmX,X8X>XR.fXGXsX",
"`.P.P.[.[.A.L.I.'.@X&XU.yXwXR.W.T.OX.X~.BX1XE h.Y.[.Y.E.OXXXE.E.+X[.XXI.I.P.E.XX#X*X&X*X&X%X@X@X+X!..X9XMXZXrXxXn.C._._.`.].<.'.",
"C.B.N.V.N.N.k.V.N.A.B.).z.C.A.Z.V.C.OX).9.o.;.S.P.G.G.M.S.N.l.j.V.C.B.B.z.j.z.x.x.A.E.A.A.A.L.J.N.S.J.k. .^.>X~.I.k.A.J.x.A.S.J.",
"D.K.J.C.C.C.B.B.C.D.B.A.E.L.z.C.C.P.A.+X..E &.t.N.n.Y.G.H.C.S.D.B.K.C.C.S.C.A.A.A.D.B.l.l.z.z.z.N.L.).Z.P +.-.y.}.h.z.S.S.S.A.z.",
"C.C.C.C.C.C.B.C.D.B.B.B.B.B.B.B.B.C.B.g.Y ;.+.r.p.t.N.B.B.B.C.C.P.B.B.B.B.B.B.B.B.C.C.C.B.C.C.C.C.B.B.r.G ;.+.<.B.t.k.B.B.B.B.B.",
"C.C.C.C.B.B.B.D.B.B.B.B.B.B.B.B.C.N.s.f.G =.+.t.r.r.u.B.B.B.C.D.C.C.B.B.B.B.B.B.B.C.B.B.B.C.C.D.B.N.f.( G ;.+.<.w.r.t.k.B.C.B.B.",
"B.B.B.B.B.N.N.B.B.B.B.B.B.C.B.N.f.s.g.u.N =.2.U U ( t.f.g.k.N.N.B.C.B.B.B.B.B.C.C.N.N.B.B.C.D.N.g.g.f.q.N =.;.Y ! ( t.s.s.g.N.B.",
"g.g.N.N.N.B.B.D.D.B.B.N.N.N.g.s.s.s.t.U k ,.;.L U L ~ d.f.f.s.f.k.N.B.B.D.D.D.B.B.B.B.N.N.N.s.s.f.s.t.D N =.;.G ^ L ( r.s.f.s.s.",
"s.g.f.g.N.f.f.s.s.s.s.N.g.s.f.s.p.) I T z ,.2.K T ^ U L ) a.f.f.a.s.a.f.B.g.f.f.f.f.f.g.f.s.s.f.a.) I U A :.>.A 0.U P L q.s.s.s.",
"r.t.p.N.u.u.u.a.a.g.g.f.f.a.t.w.! L ! T u ,.+.V / ^ ( ( T L T r.u.u.a.f.a.a.a.f.s.a.a.g.f.a.t.` I L U i.t :.+.k ^ ! ! ( I L I ( ",
"L ^ T U U U U ! ! ( ( U L L D D D U U N 0 :.+.6 q.^ t.^ ^ ^ U U ! ! U U ! ( ( ( ( q.w.( U L F F L U T z 0 :.+.4 X.T ( U U U U U ",
"q e u u u u u q q @ @ @ @ @ @ @ @ 4 3 @ # 4.2.@ e l l u p p p p u u u u u u u e 5 u 5 5 4 5 0 0 q p 4 @ + >.+.# 0 w e e e e u u ",
"} [ } } } [ [ O.O.} } } } } } } O.} m } O.O.+.} v } v [ [ } } } [ [ } } [ n n n O.n n b v [ [ [ ] [ v n O.+.+.O.} } | } [ [ [ [ "
};
